<mxfile host="app.diagrams.net" agent="Mozilla/5.0 (Windows NT 10.0; Win64; x64) AppleWebKit/537.36 (KHTML, like Gecko) Chrome/135.0.0.0 Safari/537.36 Edg/135.0.0.0" version="26.2.9">
  <diagram name="第 1 页" id="AyDrxhSpd4ukYh6KtTan">
    <mxGraphModel dx="1906" dy="1759" grid="1" gridSize="10" guides="1" tooltips="1" connect="1" arrows="1" fold="1" page="1" pageScale="1" pageWidth="827" pageHeight="1169" math="0" shadow="0">
      <root>
        <mxCell id="0" />
        <mxCell id="1" parent="0" />
        <mxCell id="mfhQNTRXj6xCpkpugNfw-1" value="" style="rounded=0;whiteSpace=wrap;html=1;" parent="1" vertex="1">
          <mxGeometry x="80" y="10" width="680" height="340" as="geometry" />
        </mxCell>
        <mxCell id="mfhQNTRXj6xCpkpugNfw-2" value="空艇" style="ellipse;whiteSpace=wrap;html=1;fillColor=#dae8fc;strokeColor=#6c8ebf;" parent="1" vertex="1">
          <mxGeometry x="380" y="10" width="90" height="60" as="geometry" />
        </mxCell>
        <mxCell id="mfhQNTRXj6xCpkpugNfw-3" value="任务栏" style="rounded=0;whiteSpace=wrap;html=1;fillColor=#d5e8d4;strokeColor=#82b366;" parent="1" vertex="1">
          <mxGeometry x="80" y="340" width="680" height="10" as="geometry" />
        </mxCell>
        <mxCell id="mfhQNTRXj6xCpkpugNfw-4" value="客人用餐区" style="rounded=0;whiteSpace=wrap;html=1;fillColor=#ffe6cc;strokeColor=#d79b00;" parent="1" vertex="1">
          <mxGeometry x="80" y="320" width="680" height="20" as="geometry" />
        </mxCell>
        <mxCell id="mfhQNTRXj6xCpkpugNfw-5" value="" style="shape=hexagon;perimeter=hexagonPerimeter2;whiteSpace=wrap;html=1;fixedSize=1;fillColor=#f8cecc;strokeColor=#b85450;" parent="1" vertex="1">
          <mxGeometry x="80" y="140" width="15" height="10" as="geometry" />
        </mxCell>
        <mxCell id="mfhQNTRXj6xCpkpugNfw-6" value="&lt;h1 style=&quot;margin-top: 0px;&quot;&gt;&lt;span style=&quot;background-color: transparent; color: light-dark(rgb(0, 0, 0), rgb(255, 255, 255));&quot;&gt;浮空港&lt;/span&gt;&lt;/h1&gt;&lt;h1 style=&quot;margin-top: 0px;&quot;&gt;&lt;span style=&quot;font-size: 12px; font-weight: 400;&quot;&gt;用于停靠其他的浮空艇，玩家可以自定义空港位置。&lt;/span&gt;&lt;/h1&gt;" style="text;html=1;whiteSpace=wrap;overflow=hidden;rounded=0;" parent="1" vertex="1">
          <mxGeometry x="-180" y="90" width="180" height="120" as="geometry" />
        </mxCell>
        <mxCell id="mfhQNTRXj6xCpkpugNfw-7" value="" style="endArrow=classic;html=1;rounded=0;exitX=1;exitY=0.5;exitDx=0;exitDy=0;" parent="1" source="mfhQNTRXj6xCpkpugNfw-6" target="mfhQNTRXj6xCpkpugNfw-5" edge="1">
          <mxGeometry width="50" height="50" relative="1" as="geometry">
            <mxPoint x="-40" y="100" as="sourcePoint" />
            <mxPoint x="10" y="50" as="targetPoint" />
          </mxGeometry>
        </mxCell>
        <mxCell id="mfhQNTRXj6xCpkpugNfw-10" value="" style="edgeStyle=orthogonalEdgeStyle;rounded=0;orthogonalLoop=1;jettySize=auto;html=1;" parent="1" source="mfhQNTRXj6xCpkpugNfw-9" target="mfhQNTRXj6xCpkpugNfw-2" edge="1">
          <mxGeometry relative="1" as="geometry" />
        </mxCell>
        <mxCell id="mfhQNTRXj6xCpkpugNfw-9" value="&lt;h1 style=&quot;margin-top: 0px;&quot;&gt;空艇&lt;/h1&gt;&lt;h1 style=&quot;margin-top: 0px;&quot;&gt;&lt;span style=&quot;font-size: 12px; font-weight: 400;&quot;&gt;浮空的厨房，承载科技树，信件等玩法&lt;/span&gt;&lt;/h1&gt;" style="text;html=1;whiteSpace=wrap;overflow=hidden;rounded=0;" parent="1" vertex="1">
          <mxGeometry x="335" y="-170" width="180" height="120" as="geometry" />
        </mxCell>
      </root>
    </mxGraphModel>
  </diagram>
</mxfile>
